<svg width="134" height="30" viewBox="0 0 134 30" fill="none" xmlns="http://www.w3.org/2000/svg">
<rect width="134" height="30" fill="#006F79"/>
<path d="M11.3164 21V12.4336H13.1328V21H11.3164ZM21.1953 21H19.4082V17.1738C19.4082 16.7012 19.3242 16.3477 19.1562 16.1133C18.9883 15.875 18.7207 15.7559 18.3535 15.7559C17.8535 15.7559 17.4922 15.9238 17.2695 16.2598C17.0469 16.5918 16.9355 17.1445 16.9355 17.918V21H15.1484V14.4492H16.5137L16.7539 15.2871H16.8535C17.0527 14.9707 17.3262 14.7324 17.6738 14.5723C18.0254 14.4082 18.4238 14.3262 18.8691 14.3262C19.6309 14.3262 20.209 14.5332 20.6035 14.9473C20.998 15.3574 21.1953 15.9512 21.1953 16.7285V21ZM25.1094 21.1172C24.3398 21.1172 23.7344 20.8184 23.293 20.2207C22.8555 19.623 22.6367 18.7949 22.6367 17.7363C22.6367 16.6621 22.8594 15.8262 23.3047 15.2285C23.7539 14.627 24.3711 14.3262 25.1562 14.3262C25.9805 14.3262 26.6094 14.6465 27.043 15.2871H27.1016C27.0117 14.7988 26.9668 14.3633 26.9668 13.9805V11.8828H28.7598V21H27.3887L27.043 20.1504H26.9668C26.5605 20.7949 25.9414 21.1172 25.1094 21.1172ZM25.7363 19.6934C26.1934 19.6934 26.5273 19.5605 26.7383 19.2949C26.9531 19.0293 27.0703 18.5781 27.0898 17.9414V17.748C27.0898 17.0449 26.9805 16.541 26.7617 16.2363C26.5469 15.9316 26.1953 15.7793 25.707 15.7793C25.3086 15.7793 24.998 15.9492 24.7754 16.2891C24.5566 16.625 24.4473 17.1152 24.4473 17.7598C24.4473 18.4043 24.5586 18.8887 24.7812 19.2129C25.0039 19.5332 25.3223 19.6934 25.7363 19.6934ZM33.3418 15.5977C32.9629 15.5977 32.666 15.7188 32.4512 15.9609C32.2363 16.1992 32.1133 16.5391 32.082 16.9805H34.5898C34.582 16.5391 34.4668 16.1992 34.2441 15.9609C34.0215 15.7188 33.7207 15.5977 33.3418 15.5977ZM33.5938 21.1172C32.5391 21.1172 31.7148 20.8262 31.1211 20.2441C30.5273 19.6621 30.2305 18.8379 30.2305 17.7715C30.2305 16.6738 30.5039 15.8262 31.0508 15.2285C31.6016 14.627 32.3613 14.3262 33.3301 14.3262C34.2559 14.3262 34.9766 14.5898 35.4922 15.1172C36.0078 15.6445 36.2656 16.373 36.2656 17.3027V18.1699H32.041C32.0605 18.6777 32.2109 19.0742 32.4922 19.3594C32.7734 19.6445 33.168 19.7871 33.6758 19.7871C34.0703 19.7871 34.4434 19.7461 34.7949 19.6641C35.1465 19.582 35.5137 19.4512 35.8965 19.2715V20.6543C35.584 20.8105 35.25 20.9258 34.8945 21C34.5391 21.0781 34.1055 21.1172 33.5938 21.1172ZM41.3164 21.1172C40.5469 21.1172 39.9434 20.8379 39.5059 20.2793H39.4121C39.4746 20.8262 39.5059 21.1426 39.5059 21.2285V23.8828H37.7188V14.4492H39.1719L39.4238 15.2988H39.5059C39.9238 14.6504 40.543 14.3262 41.3633 14.3262C42.1367 14.3262 42.7422 14.625 43.1797 15.2227C43.6172 15.8203 43.8359 16.6504 43.8359 17.7129C43.8359 18.4121 43.7324 19.0195 43.5254 19.5352C43.3223 20.0508 43.0312 20.4434 42.6523 20.7129C42.2734 20.9824 41.8281 21.1172 41.3164 21.1172ZM40.7891 15.7559C40.3477 15.7559 40.0254 15.8926 39.8223 16.166C39.6191 16.4355 39.5137 16.8828 39.5059 17.5078V17.7012C39.5059 18.4043 39.6094 18.9082 39.8164 19.2129C40.0273 19.5176 40.3594 19.6699 40.8125 19.6699C41.6133 19.6699 42.0137 19.0098 42.0137 17.6895C42.0137 17.0449 41.9141 16.5625 41.7148 16.2422C41.5195 15.918 41.2109 15.7559 40.7891 15.7559ZM48.0254 15.5977C47.6465 15.5977 47.3496 15.7188 47.1348 15.9609C46.9199 16.1992 46.7969 16.5391 46.7656 16.9805H49.2734C49.2656 16.5391 49.1504 16.1992 48.9277 15.9609C48.7051 15.7188 48.4043 15.5977 48.0254 15.5977ZM48.2773 21.1172C47.2227 21.1172 46.3984 20.8262 45.8047 20.2441C45.2109 19.6621 44.9141 18.8379 44.9141 17.7715C44.9141 16.6738 45.1875 15.8262 45.7344 15.2285C46.2852 14.627 47.0449 14.3262 48.0137 14.3262C48.9395 14.3262 49.6602 14.5898 50.1758 15.1172C50.6914 15.6445 50.9492 16.373 50.9492 17.3027V18.1699H46.7246C46.7441 18.6777 46.8945 19.0742 47.1758 19.3594C47.457 19.6445 47.8516 19.7871 48.3594 19.7871C48.7539 19.7871 49.127 19.7461 49.4785 19.6641C49.8301 19.582 50.1973 19.4512 50.5801 19.2715V20.6543C50.2676 20.8105 49.9336 20.9258 49.5781 21C49.2227 21.0781 48.7891 21.1172 48.2773 21.1172ZM58.4492 21H56.6621V17.1738C56.6621 16.7012 56.5781 16.3477 56.4102 16.1133C56.2422 15.875 55.9746 15.7559 55.6074 15.7559C55.1074 15.7559 54.7461 15.9238 54.5234 16.2598C54.3008 16.5918 54.1895 17.1445 54.1895 17.918V21H52.4023V14.4492H53.7676L54.0078 15.2871H54.1074C54.3066 14.9707 54.5801 14.7324 54.9277 14.5723C55.2793 14.4082 55.6777 14.3262 56.123 14.3262C56.8848 14.3262 57.4629 14.5332 57.8574 14.9473C58.252 15.3574 58.4492 15.9512 58.4492 16.7285V21ZM62.3633 21.1172C61.5938 21.1172 60.9883 20.8184 60.5469 20.2207C60.1094 19.623 59.8906 18.7949 59.8906 17.7363C59.8906 16.6621 60.1133 15.8262 60.5586 15.2285C61.0078 14.627 61.625 14.3262 62.4102 14.3262C63.2344 14.3262 63.8633 14.6465 64.2969 15.2871H64.3555C64.2656 14.7988 64.2207 14.3633 64.2207 13.9805V11.8828H66.0137V21H64.6426L64.2969 20.1504H64.2207C63.8145 20.7949 63.1953 21.1172 62.3633 21.1172ZM62.9902 19.6934C63.4473 19.6934 63.7812 19.5605 63.9922 19.2949C64.207 19.0293 64.3242 18.5781 64.3438 17.9414V17.748C64.3438 17.0449 64.2344 16.541 64.0156 16.2363C63.8008 15.9316 63.4492 15.7793 62.9609 15.7793C62.5625 15.7793 62.252 15.9492 62.0293 16.2891C61.8105 16.625 61.7012 17.1152 61.7012 17.7598C61.7012 18.4043 61.8125 18.8887 62.0352 19.2129C62.2578 19.5332 62.5762 19.6934 62.9902 19.6934ZM70.5957 15.5977C70.2168 15.5977 69.9199 15.7188 69.7051 15.9609C69.4902 16.1992 69.3672 16.5391 69.3359 16.9805H71.8438C71.8359 16.5391 71.7207 16.1992 71.498 15.9609C71.2754 15.7188 70.9746 15.5977 70.5957 15.5977ZM70.8477 21.1172C69.793 21.1172 68.9688 20.8262 68.375 20.2441C67.7812 19.6621 67.4844 18.8379 67.4844 17.7715C67.4844 16.6738 67.7578 15.8262 68.3047 15.2285C68.8555 14.627 69.6152 14.3262 70.584 14.3262C71.5098 14.3262 72.2305 14.5898 72.7461 15.1172C73.2617 15.6445 73.5195 16.373 73.5195 17.3027V18.1699H69.2949C69.3145 18.6777 69.4648 19.0742 69.7461 19.3594C70.0273 19.6445 70.4219 19.7871 70.9297 19.7871C71.3242 19.7871 71.6973 19.7461 72.0488 19.6641C72.4004 19.582 72.7676 19.4512 73.1504 19.2715V20.6543C72.8379 20.8105 72.5039 20.9258 72.1484 21C71.793 21.0781 71.3594 21.1172 70.8477 21.1172ZM81.0195 21H79.2324V17.1738C79.2324 16.7012 79.1484 16.3477 78.9805 16.1133C78.8125 15.875 78.5449 15.7559 78.1777 15.7559C77.6777 15.7559 77.3164 15.9238 77.0938 16.2598C76.8711 16.5918 76.7598 17.1445 76.7598 17.918V21H74.9727V14.4492H76.3379L76.5781 15.2871H76.6777C76.877 14.9707 77.1504 14.7324 77.498 14.5723C77.8496 14.4082 78.248 14.3262 78.6934 14.3262C79.4551 14.3262 80.0332 14.5332 80.4277 14.9473C80.8223 15.3574 81.0195 15.9512 81.0195 16.7285V21ZM85.6191 19.6934C85.9316 19.6934 86.3066 19.625 86.7441 19.4883V20.8184C86.2988 21.0176 85.752 21.1172 85.1035 21.1172C84.3887 21.1172 83.8672 20.9375 83.5391 20.5781C83.2148 20.2148 83.0527 19.6719 83.0527 18.9492V15.791H82.1973V15.0352L83.1816 14.4375L83.6973 13.0547H84.8398V14.4492H86.6738V15.791H84.8398V18.9492C84.8398 19.2031 84.9102 19.3906 85.0508 19.5117C85.1953 19.6328 85.3848 19.6934 85.6191 19.6934ZM92.9785 21H91.1914V11.8828H92.9785V21ZM94.7832 12.7559C94.7832 12.1738 95.1074 11.8828 95.7559 11.8828C96.4043 11.8828 96.7285 12.1738 96.7285 12.7559C96.7285 13.0332 96.6465 13.25 96.4824 13.4062C96.3223 13.5586 96.0801 13.6348 95.7559 13.6348C95.1074 13.6348 94.7832 13.3418 94.7832 12.7559ZM96.6465 21H94.8594V14.4492H96.6465V21ZM100.086 21L97.5898 14.4492H99.459L100.725 18.1816C100.865 18.6543 100.953 19.1016 100.988 19.5234H101.023C101.043 19.1484 101.131 18.7012 101.287 18.1816L102.547 14.4492H104.416L101.92 21H100.086ZM105.283 12.7559C105.283 12.1738 105.607 11.8828 106.256 11.8828C106.904 11.8828 107.229 12.1738 107.229 12.7559C107.229 13.0332 107.146 13.25 106.982 13.4062C106.822 13.5586 106.58 13.6348 106.256 13.6348C105.607 13.6348 105.283 13.3418 105.283 12.7559ZM107.146 21H105.359V14.4492H107.146V21ZM115.074 21H113.287V17.1738C113.287 16.7012 113.203 16.3477 113.035 16.1133C112.867 15.875 112.6 15.7559 112.232 15.7559C111.732 15.7559 111.371 15.9238 111.148 16.2598C110.926 16.5918 110.814 17.1445 110.814 17.918V21H109.027V14.4492H110.393L110.633 15.2871H110.732C110.932 14.9707 111.205 14.7324 111.553 14.5723C111.904 14.4082 112.303 14.3262 112.748 14.3262C113.51 14.3262 114.088 14.5332 114.482 14.9473C114.877 15.3574 115.074 15.9512 115.074 16.7285V21ZM122.615 14.4492V15.3574L121.59 15.6211C121.777 15.9141 121.871 16.2422 121.871 16.6055C121.871 17.3086 121.625 17.8574 121.133 18.252C120.645 18.6426 119.965 18.8379 119.094 18.8379L118.771 18.8203L118.508 18.791C118.324 18.9316 118.232 19.0879 118.232 19.2598C118.232 19.5176 118.561 19.6465 119.217 19.6465H120.33C121.049 19.6465 121.596 19.8008 121.971 20.1094C122.35 20.418 122.539 20.8711 122.539 21.4688C122.539 22.2344 122.219 22.8281 121.578 23.25C120.941 23.6719 120.025 23.8828 118.83 23.8828C117.916 23.8828 117.217 23.7227 116.732 23.4023C116.252 23.0859 116.012 22.6406 116.012 22.0664C116.012 21.6719 116.135 21.3418 116.381 21.0762C116.627 20.8105 116.988 20.6211 117.465 20.5078C117.281 20.4297 117.121 20.3027 116.984 20.127C116.848 19.9473 116.779 19.7578 116.779 19.5586C116.779 19.3086 116.852 19.1016 116.996 18.9375C117.141 18.7695 117.35 18.6055 117.623 18.4453C117.279 18.2969 117.006 18.0586 116.803 17.7305C116.604 17.4023 116.504 17.0156 116.504 16.5703C116.504 15.8555 116.736 15.3027 117.201 14.9121C117.666 14.5215 118.33 14.3262 119.193 14.3262C119.377 14.3262 119.594 14.3438 119.844 14.3789C120.098 14.4102 120.26 14.4336 120.33 14.4492H122.615ZM117.559 21.9258C117.559 22.1719 117.676 22.3652 117.91 22.5059C118.148 22.6465 118.48 22.7168 118.906 22.7168C119.547 22.7168 120.049 22.6289 120.412 22.4531C120.775 22.2773 120.957 22.0371 120.957 21.7324C120.957 21.4863 120.85 21.3164 120.635 21.2227C120.42 21.1289 120.088 21.082 119.639 21.082H118.713C118.385 21.082 118.109 21.1582 117.887 21.3105C117.668 21.4668 117.559 21.6719 117.559 21.9258ZM118.209 16.5938C118.209 16.9492 118.289 17.2305 118.449 17.4375C118.613 17.6445 118.861 17.748 119.193 17.748C119.529 17.748 119.775 17.6445 119.932 17.4375C120.088 17.2305 120.166 16.9492 120.166 16.5938C120.166 15.8047 119.842 15.4102 119.193 15.4102C118.537 15.4102 118.209 15.8047 118.209 16.5938Z" fill="white"/>
</svg>
