<svg width="204" height="30" viewBox="0 0 204 30" fill="none" xmlns="http://www.w3.org/2000/svg">
<path fill-rule="evenodd" clip-rule="evenodd" d="M0 0H204V30H0V0Z" fill="#EC6608"/>
<path d="M11.1211 16.2363H11.707C12.2812 16.2363 12.7051 16.1406 12.9785 15.9492C13.252 15.7578 13.3887 15.457 13.3887 15.0469C13.3887 14.6406 13.248 14.3516 12.9668 14.1797C12.6895 14.0078 12.2578 13.9219 11.6719 13.9219H11.1211V16.2363ZM11.1211 17.7129V21H9.30469V12.4336H11.8008C12.9648 12.4336 13.8262 12.6465 14.3848 13.0723C14.9434 13.4941 15.2227 14.1367 15.2227 15C15.2227 15.5039 15.084 15.9531 14.8066 16.3477C14.5293 16.7383 14.1367 17.0449 13.6289 17.2676C14.918 19.1934 15.7578 20.4375 16.1484 21H14.1328L12.0879 17.7129H11.1211ZM19.7988 15.5977C19.4199 15.5977 19.123 15.7188 18.9082 15.9609C18.6934 16.1992 18.5703 16.5391 18.5391 16.9805H21.0469C21.0391 16.5391 20.9238 16.1992 20.7012 15.9609C20.4785 15.7188 20.1777 15.5977 19.7988 15.5977ZM20.0508 21.1172C18.9961 21.1172 18.1719 20.8262 17.5781 20.2441C16.9844 19.6621 16.6875 18.8379 16.6875 17.7715C16.6875 16.6738 16.9609 15.8262 17.5078 15.2285C18.0586 14.627 18.8184 14.3262 19.7871 14.3262C20.7129 14.3262 21.4336 14.5898 21.9492 15.1172C22.4648 15.6445 22.7227 16.373 22.7227 17.3027V18.1699H18.498C18.5176 18.6777 18.668 19.0742 18.9492 19.3594C19.2305 19.6445 19.625 19.7871 20.1328 19.7871C20.5273 19.7871 20.9004 19.7461 21.252 19.6641C21.6035 19.582 21.9707 19.4512 22.3535 19.2715V20.6543C22.041 20.8105 21.707 20.9258 21.3516 21C20.9961 21.0781 20.5625 21.1172 20.0508 21.1172ZM28.7461 19.0547C28.7461 19.7266 28.5117 20.2383 28.043 20.5898C27.5781 20.9414 26.8809 21.1172 25.9512 21.1172C25.4746 21.1172 25.0684 21.084 24.7324 21.0176C24.3965 20.9551 24.082 20.8613 23.7891 20.7363V19.2598C24.1211 19.416 24.4941 19.5469 24.9082 19.6523C25.3262 19.7578 25.6934 19.8105 26.0098 19.8105C26.6582 19.8105 26.9824 19.623 26.9824 19.248C26.9824 19.1074 26.9395 18.9941 26.8535 18.9082C26.7676 18.8184 26.6191 18.7188 26.4082 18.6094C26.1973 18.4961 25.916 18.3652 25.5645 18.2168C25.0605 18.0059 24.6895 17.8105 24.4512 17.6309C24.2168 17.4512 24.0449 17.2461 23.9355 17.0156C23.8301 16.7812 23.7773 16.4941 23.7773 16.1543C23.7773 15.5723 24.002 15.123 24.4512 14.8066C24.9043 14.4863 25.5449 14.3262 26.373 14.3262C27.1621 14.3262 27.9297 14.498 28.6758 14.8418L28.1367 16.1309C27.8086 15.9902 27.502 15.875 27.2168 15.7852C26.9316 15.6953 26.6406 15.6504 26.3438 15.6504C25.8164 15.6504 25.5527 15.793 25.5527 16.0781C25.5527 16.2383 25.6367 16.377 25.8047 16.4941C25.9766 16.6113 26.3496 16.7852 26.9238 17.0156C27.4355 17.2227 27.8105 17.416 28.0488 17.5957C28.2871 17.7754 28.4629 17.9824 28.5762 18.2168C28.6895 18.4512 28.7461 18.7305 28.7461 19.0547ZM32.9004 19.6934C33.2129 19.6934 33.5879 19.625 34.0254 19.4883V20.8184C33.5801 21.0176 33.0332 21.1172 32.3848 21.1172C31.6699 21.1172 31.1484 20.9375 30.8203 20.5781C30.4961 20.2148 30.334 19.6719 30.334 18.9492V15.791H29.4785V15.0352L30.4629 14.4375L30.9785 13.0547H32.1211V14.4492H33.9551V15.791H32.1211V18.9492C32.1211 19.2031 32.1914 19.3906 32.332 19.5117C32.4766 19.6328 32.666 19.6934 32.9004 19.6934ZM39.5156 21L39.1699 20.1094H39.123C38.8223 20.4883 38.5117 20.752 38.1914 20.9004C37.875 21.0449 37.4609 21.1172 36.9492 21.1172C36.3203 21.1172 35.8242 20.9375 35.4609 20.5781C35.1016 20.2188 34.9219 19.707 34.9219 19.043C34.9219 18.3477 35.1641 17.8359 35.6484 17.5078C36.1367 17.1758 36.8711 16.9922 37.8516 16.957L38.9883 16.9219V16.6348C38.9883 15.9707 38.6484 15.6387 37.9688 15.6387C37.4453 15.6387 36.8301 15.7969 36.123 16.1133L35.5312 14.9062C36.2852 14.5117 37.1211 14.3145 38.0391 14.3145C38.918 14.3145 39.5918 14.5059 40.0605 14.8887C40.5293 15.2715 40.7637 15.8535 40.7637 16.6348V21H39.5156ZM38.9883 17.9648L38.2969 17.9883C37.7773 18.0039 37.3906 18.0977 37.1367 18.2695C36.8828 18.4414 36.7559 18.7031 36.7559 19.0547C36.7559 19.5586 37.0449 19.8105 37.623 19.8105C38.0371 19.8105 38.3672 19.6914 38.6133 19.4531C38.8633 19.2148 38.9883 18.8984 38.9883 18.5039V17.9648ZM47.25 21L47.0098 20.1621H46.916C46.7246 20.4668 46.4531 20.7031 46.1016 20.8711C45.75 21.0352 45.3496 21.1172 44.9004 21.1172C44.1309 21.1172 43.5508 20.9121 43.1602 20.502C42.7695 20.0879 42.5742 19.4941 42.5742 18.7207V14.4492H44.3613V18.2754C44.3613 18.748 44.4453 19.1035 44.6133 19.3418C44.7812 19.5762 45.0488 19.6934 45.416 19.6934C45.916 19.6934 46.2773 19.5273 46.5 19.1953C46.7227 18.8594 46.834 18.3047 46.834 17.5312V14.4492H48.6211V21H47.25ZM54.1523 14.3262C54.3945 14.3262 54.5957 14.3438 54.7559 14.3789L54.6211 16.0547C54.4766 16.0156 54.3008 15.9961 54.0938 15.9961C53.5234 15.9961 53.0781 16.1426 52.7578 16.4355C52.4414 16.7285 52.2832 17.1387 52.2832 17.666V21H50.4961V14.4492H51.8496L52.1133 15.5508H52.2012C52.4043 15.1836 52.6777 14.8887 53.0215 14.666C53.3691 14.4395 53.7461 14.3262 54.1523 14.3262ZM60.1055 21L59.7598 20.1094H59.7129C59.4121 20.4883 59.1016 20.752 58.7812 20.9004C58.4648 21.0449 58.0508 21.1172 57.5391 21.1172C56.9102 21.1172 56.4141 20.9375 56.0508 20.5781C55.6914 20.2188 55.5117 19.707 55.5117 19.043C55.5117 18.3477 55.7539 17.8359 56.2383 17.5078C56.7266 17.1758 57.4609 16.9922 58.4414 16.957L59.5781 16.9219V16.6348C59.5781 15.9707 59.2383 15.6387 58.5586 15.6387C58.0352 15.6387 57.4199 15.7969 56.7129 16.1133L56.1211 14.9062C56.875 14.5117 57.7109 14.3145 58.6289 14.3145C59.5078 14.3145 60.1816 14.5059 60.6504 14.8887C61.1191 15.2715 61.3535 15.8535 61.3535 16.6348V21H60.1055ZM59.5781 17.9648L58.8867 17.9883C58.3672 18.0039 57.9805 18.0977 57.7266 18.2695C57.4727 18.4414 57.3457 18.7031 57.3457 19.0547C57.3457 19.5586 57.6348 19.8105 58.2129 19.8105C58.627 19.8105 58.957 19.6914 59.2031 19.4531C59.4531 19.2148 59.5781 18.8984 59.5781 18.5039V17.9648ZM69.2461 21H67.459V17.1738C67.459 16.7012 67.375 16.3477 67.207 16.1133C67.0391 15.875 66.7715 15.7559 66.4043 15.7559C65.9043 15.7559 65.543 15.9238 65.3203 16.2598C65.0977 16.5918 64.9863 17.1445 64.9863 17.918V21H63.1992V14.4492H64.5645L64.8047 15.2871H64.9043C65.1035 14.9707 65.377 14.7324 65.7246 14.5723C66.0762 14.4082 66.4746 14.3262 66.9199 14.3262C67.6816 14.3262 68.2598 14.5332 68.6543 14.9473C69.0488 15.3574 69.2461 15.9512 69.2461 16.7285V21ZM73.8457 19.6934C74.1582 19.6934 74.5332 19.625 74.9707 19.4883V20.8184C74.5254 21.0176 73.9785 21.1172 73.3301 21.1172C72.6152 21.1172 72.0938 20.9375 71.7656 20.5781C71.4414 20.2148 71.2793 19.6719 71.2793 18.9492V15.791H70.4238V15.0352L71.4082 14.4375L71.9238 13.0547H73.0664V14.4492H74.9004V15.791H73.0664V18.9492C73.0664 19.2031 73.1367 19.3906 73.2773 19.5117C73.4219 19.6328 73.6113 19.6934 73.8457 19.6934ZM87.4805 21H85.2715L84.5977 20.3379C83.8516 20.8574 83.0078 21.1172 82.0664 21.1172C81.1133 21.1172 80.3574 20.8984 79.7988 20.4609C79.2402 20.0234 78.9609 19.4316 78.9609 18.6855C78.9609 18.1504 79.0781 17.6953 79.3125 17.3203C79.5508 16.9414 79.957 16.5879 80.5312 16.2598C80.2383 15.9238 80.0254 15.6035 79.8926 15.2988C79.7598 14.9902 79.6934 14.6543 79.6934 14.291C79.6934 13.6973 79.9199 13.2188 80.373 12.8555C80.8301 12.4922 81.4395 12.3105 82.2012 12.3105C82.9277 12.3105 83.5078 12.4805 83.9414 12.8203C84.3789 13.1562 84.5977 13.6074 84.5977 14.1738C84.5977 14.6387 84.4629 15.0645 84.1934 15.4512C83.9238 15.834 83.4883 16.1992 82.8867 16.5469L84.5508 18.1699C84.8281 17.7129 85.0684 17.125 85.2715 16.4062H87.1348C86.9941 16.9336 86.8008 17.4492 86.5547 17.9531C86.3086 18.4531 86.0293 18.8965 85.7168 19.2832L87.4805 21ZM80.8418 18.5156C80.8418 18.8516 80.9668 19.1191 81.2168 19.3184C81.4707 19.5176 81.7949 19.6172 82.1895 19.6172C82.6816 19.6172 83.125 19.498 83.5195 19.2598L81.5742 17.3262C81.3477 17.498 81.168 17.6777 81.0352 17.8652C80.9062 18.0527 80.8418 18.2695 80.8418 18.5156ZM82.9453 14.3613C82.9453 14.1543 82.875 13.9922 82.7344 13.875C82.5938 13.7539 82.4121 13.6934 82.1895 13.6934C81.9277 13.6934 81.7207 13.7559 81.5684 13.8809C81.4199 14.0059 81.3457 14.1836 81.3457 14.4141C81.3457 14.7578 81.5312 15.1367 81.9023 15.5508C82.2383 15.3633 82.4961 15.1797 82.6758 15C82.8555 14.8164 82.9453 14.6035 82.9453 14.3613ZM96.7324 18.6211C96.7324 19.3945 96.4531 20.0039 95.8945 20.4492C95.3398 20.8945 94.5664 21.1172 93.5742 21.1172C92.6602 21.1172 91.8516 20.9453 91.1484 20.6016V18.9141C91.7266 19.1719 92.2148 19.3535 92.6133 19.459C93.0156 19.5645 93.3828 19.6172 93.7148 19.6172C94.1133 19.6172 94.418 19.541 94.6289 19.3887C94.8438 19.2363 94.9512 19.0098 94.9512 18.709C94.9512 18.541 94.9043 18.3926 94.8105 18.2637C94.7168 18.1309 94.5781 18.0039 94.3945 17.8828C94.2148 17.7617 93.8457 17.5684 93.2871 17.3027C92.7637 17.0566 92.3711 16.8203 92.1094 16.5938C91.8477 16.3672 91.6387 16.1035 91.4824 15.8027C91.3262 15.502 91.248 15.1504 91.248 14.748C91.248 13.9902 91.5039 13.3945 92.0156 12.9609C92.5312 12.5273 93.2422 12.3105 94.1484 12.3105C94.5938 12.3105 95.0176 12.3633 95.4199 12.4688C95.8262 12.5742 96.25 12.7227 96.6914 12.9141L96.1055 14.3262C95.6484 14.1387 95.2695 14.0078 94.9688 13.9336C94.6719 13.8594 94.3789 13.8223 94.0898 13.8223C93.7461 13.8223 93.4824 13.9023 93.2988 14.0625C93.1152 14.2227 93.0234 14.4316 93.0234 14.6895C93.0234 14.8496 93.0605 14.9902 93.1348 15.1113C93.209 15.2285 93.3262 15.3438 93.4863 15.457C93.6504 15.5664 94.0352 15.7656 94.6406 16.0547C95.4414 16.4375 95.9902 16.8223 96.2871 17.209C96.584 17.5918 96.7324 18.0625 96.7324 18.6211ZM102.785 21L102.545 20.1621H102.451C102.26 20.4668 101.988 20.7031 101.637 20.8711C101.285 21.0352 100.885 21.1172 100.436 21.1172C99.666 21.1172 99.0859 20.9121 98.6953 20.502C98.3047 20.0879 98.1094 19.4941 98.1094 18.7207V14.4492H99.8965V18.2754C99.8965 18.748 99.9805 19.1035 100.148 19.3418C100.316 19.5762 100.584 19.6934 100.951 19.6934C101.451 19.6934 101.812 19.5273 102.035 19.1953C102.258 18.8594 102.369 18.3047 102.369 17.5312V14.4492H104.156V21H102.785ZM109.629 21.1172C108.859 21.1172 108.256 20.8379 107.818 20.2793H107.725C107.787 20.8262 107.818 21.1426 107.818 21.2285V23.8828H106.031V14.4492H107.484L107.736 15.2988H107.818C108.236 14.6504 108.855 14.3262 109.676 14.3262C110.449 14.3262 111.055 14.625 111.492 15.2227C111.93 15.8203 112.148 16.6504 112.148 17.7129C112.148 18.4121 112.045 19.0195 111.838 19.5352C111.635 20.0508 111.344 20.4434 110.965 20.7129C110.586 20.9824 110.141 21.1172 109.629 21.1172ZM109.102 15.7559C108.66 15.7559 108.338 15.8926 108.135 16.166C107.932 16.4355 107.826 16.8828 107.818 17.5078V17.7012C107.818 18.4043 107.922 18.9082 108.129 19.2129C108.34 19.5176 108.672 19.6699 109.125 19.6699C109.926 19.6699 110.326 19.0098 110.326 17.6895C110.326 17.0449 110.227 16.5625 110.027 16.2422C109.832 15.918 109.523 15.7559 109.102 15.7559ZM117.223 21.1172C116.453 21.1172 115.85 20.8379 115.412 20.2793H115.318C115.381 20.8262 115.412 21.1426 115.412 21.2285V23.8828H113.625V14.4492H115.078L115.33 15.2988H115.412C115.83 14.6504 116.449 14.3262 117.27 14.3262C118.043 14.3262 118.648 14.625 119.086 15.2227C119.523 15.8203 119.742 16.6504 119.742 17.7129C119.742 18.4121 119.639 19.0195 119.432 19.5352C119.229 20.0508 118.938 20.4434 118.559 20.7129C118.18 20.9824 117.734 21.1172 117.223 21.1172ZM116.695 15.7559C116.254 15.7559 115.932 15.8926 115.729 16.166C115.525 16.4355 115.42 16.8828 115.412 17.5078V17.7012C115.412 18.4043 115.516 18.9082 115.723 19.2129C115.934 19.5176 116.266 19.6699 116.719 19.6699C117.52 19.6699 117.92 19.0098 117.92 17.6895C117.92 17.0449 117.82 16.5625 117.621 16.2422C117.426 15.918 117.117 15.7559 116.695 15.7559ZM122.643 17.7129C122.643 18.3613 122.748 18.8516 122.959 19.1836C123.174 19.5156 123.521 19.6816 124.002 19.6816C124.479 19.6816 124.82 19.5176 125.027 19.1895C125.238 18.8574 125.344 18.3652 125.344 17.7129C125.344 17.0645 125.238 16.5781 125.027 16.2539C124.816 15.9297 124.471 15.7676 123.99 15.7676C123.514 15.7676 123.17 15.9297 122.959 16.2539C122.748 16.5742 122.643 17.0605 122.643 17.7129ZM127.172 17.7129C127.172 18.7793 126.891 19.6133 126.328 20.2148C125.766 20.8164 124.982 21.1172 123.979 21.1172C123.35 21.1172 122.795 20.9805 122.314 20.707C121.834 20.4297 121.465 20.0332 121.207 19.5176C120.949 19.002 120.82 18.4004 120.82 17.7129C120.82 16.6426 121.1 15.8105 121.658 15.2168C122.217 14.623 123.002 14.3262 124.014 14.3262C124.643 14.3262 125.197 14.4629 125.678 14.7363C126.158 15.0098 126.527 15.4023 126.785 15.9141C127.043 16.4258 127.172 17.0254 127.172 17.7129ZM132.305 14.3262C132.547 14.3262 132.748 14.3438 132.908 14.3789L132.773 16.0547C132.629 16.0156 132.453 15.9961 132.246 15.9961C131.676 15.9961 131.23 16.1426 130.91 16.4355C130.594 16.7285 130.436 17.1387 130.436 17.666V21H128.648V14.4492H130.002L130.266 15.5508H130.354C130.557 15.1836 130.83 14.8887 131.174 14.666C131.521 14.4395 131.898 14.3262 132.305 14.3262ZM136.857 19.6934C137.17 19.6934 137.545 19.625 137.982 19.4883V20.8184C137.537 21.0176 136.99 21.1172 136.342 21.1172C135.627 21.1172 135.105 20.9375 134.777 20.5781C134.453 20.2148 134.291 19.6719 134.291 18.9492V15.791H133.436V15.0352L134.42 14.4375L134.936 13.0547H136.078V14.4492H137.912V15.791H136.078V18.9492C136.078 19.2031 136.148 19.3906 136.289 19.5117C136.434 19.6328 136.623 19.6934 136.857 19.6934ZM146.59 21L146.244 20.1094H146.197C145.896 20.4883 145.586 20.752 145.266 20.9004C144.949 21.0449 144.535 21.1172 144.023 21.1172C143.395 21.1172 142.898 20.9375 142.535 20.5781C142.176 20.2188 141.996 19.707 141.996 19.043C141.996 18.3477 142.238 17.8359 142.723 17.5078C143.211 17.1758 143.945 16.9922 144.926 16.957L146.062 16.9219V16.6348C146.062 15.9707 145.723 15.6387 145.043 15.6387C144.52 15.6387 143.904 15.7969 143.197 16.1133L142.605 14.9062C143.359 14.5117 144.195 14.3145 145.113 14.3145C145.992 14.3145 146.666 14.5059 147.135 14.8887C147.604 15.2715 147.838 15.8535 147.838 16.6348V21H146.59ZM146.062 17.9648L145.371 17.9883C144.852 18.0039 144.465 18.0977 144.211 18.2695C143.957 18.4414 143.83 18.7031 143.83 19.0547C143.83 19.5586 144.119 19.8105 144.697 19.8105C145.111 19.8105 145.441 19.6914 145.688 19.4531C145.938 19.2148 146.062 18.8984 146.062 18.5039V17.9648ZM151.242 21L148.746 14.4492H150.615L151.881 18.1816C152.021 18.6543 152.109 19.1016 152.145 19.5234H152.18C152.199 19.1484 152.287 18.7012 152.443 18.1816L153.703 14.4492H155.572L153.076 21H151.242ZM160.676 21L160.33 20.1094H160.283C159.982 20.4883 159.672 20.752 159.352 20.9004C159.035 21.0449 158.621 21.1172 158.109 21.1172C157.48 21.1172 156.984 20.9375 156.621 20.5781C156.262 20.2188 156.082 19.707 156.082 19.043C156.082 18.3477 156.324 17.8359 156.809 17.5078C157.297 17.1758 158.031 16.9922 159.012 16.957L160.148 16.9219V16.6348C160.148 15.9707 159.809 15.6387 159.129 15.6387C158.605 15.6387 157.99 15.7969 157.283 16.1133L156.691 14.9062C157.445 14.5117 158.281 14.3145 159.199 14.3145C160.078 14.3145 160.752 14.5059 161.221 14.8887C161.689 15.2715 161.924 15.8535 161.924 16.6348V21H160.676ZM160.148 17.9648L159.457 17.9883C158.938 18.0039 158.551 18.0977 158.297 18.2695C158.043 18.4414 157.916 18.7031 157.916 19.0547C157.916 19.5586 158.205 19.8105 158.783 19.8105C159.197 19.8105 159.527 19.6914 159.773 19.4531C160.023 19.2148 160.148 18.8984 160.148 18.5039V17.9648ZM163.693 12.7559C163.693 12.1738 164.018 11.8828 164.666 11.8828C165.314 11.8828 165.639 12.1738 165.639 12.7559C165.639 13.0332 165.557 13.25 165.393 13.4062C165.232 13.5586 164.99 13.6348 164.666 13.6348C164.018 13.6348 163.693 13.3418 163.693 12.7559ZM165.557 21H163.77V14.4492H165.557V21ZM169.225 21H167.438V11.8828H169.225V21ZM175.266 21L174.92 20.1094H174.873C174.572 20.4883 174.262 20.752 173.941 20.9004C173.625 21.0449 173.211 21.1172 172.699 21.1172C172.07 21.1172 171.574 20.9375 171.211 20.5781C170.852 20.2188 170.672 19.707 170.672 19.043C170.672 18.3477 170.914 17.8359 171.398 17.5078C171.887 17.1758 172.621 16.9922 173.602 16.957L174.738 16.9219V16.6348C174.738 15.9707 174.398 15.6387 173.719 15.6387C173.195 15.6387 172.58 15.7969 171.873 16.1133L171.281 14.9062C172.035 14.5117 172.871 14.3145 173.789 14.3145C174.668 14.3145 175.342 14.5059 175.811 14.8887C176.279 15.2715 176.514 15.8535 176.514 16.6348V21H175.266ZM174.738 17.9648L174.047 17.9883C173.527 18.0039 173.141 18.0977 172.887 18.2695C172.633 18.4414 172.506 18.7031 172.506 19.0547C172.506 19.5586 172.795 19.8105 173.373 19.8105C173.787 19.8105 174.117 19.6914 174.363 19.4531C174.613 19.2148 174.738 18.8984 174.738 18.5039V17.9648ZM182.004 14.3262C182.777 14.3262 183.383 14.6289 183.82 15.2344C184.258 15.8359 184.477 16.6621 184.477 17.7129C184.477 18.7949 184.25 19.6328 183.797 20.2266C183.348 20.8203 182.734 21.1172 181.957 21.1172C181.188 21.1172 180.584 20.8379 180.146 20.2793H180.023L179.725 21H178.359V11.8828H180.146V14.0039C180.146 14.2734 180.123 14.7051 180.076 15.2988H180.146C180.564 14.6504 181.184 14.3262 182.004 14.3262ZM181.43 15.7559C180.988 15.7559 180.666 15.8926 180.463 16.166C180.26 16.4355 180.154 16.8828 180.146 17.5078V17.7012C180.146 18.4043 180.25 18.9082 180.457 19.2129C180.668 19.5176 181 19.6699 181.453 19.6699C181.82 19.6699 182.111 19.502 182.326 19.166C182.545 18.8262 182.654 18.334 182.654 17.6895C182.654 17.0449 182.545 16.5625 182.326 16.2422C182.107 15.918 181.809 15.7559 181.43 15.7559ZM187.74 21H185.953V11.8828H187.74V21ZM192.334 15.5977C191.955 15.5977 191.658 15.7188 191.443 15.9609C191.229 16.1992 191.105 16.5391 191.074 16.9805H193.582C193.574 16.5391 193.459 16.1992 193.236 15.9609C193.014 15.7188 192.713 15.5977 192.334 15.5977ZM192.586 21.1172C191.531 21.1172 190.707 20.8262 190.113 20.2441C189.52 19.6621 189.223 18.8379 189.223 17.7715C189.223 16.6738 189.496 15.8262 190.043 15.2285C190.594 14.627 191.354 14.3262 192.322 14.3262C193.248 14.3262 193.969 14.5898 194.484 15.1172C195 15.6445 195.258 16.373 195.258 17.3027V18.1699H191.033C191.053 18.6777 191.203 19.0742 191.484 19.3594C191.766 19.6445 192.16 19.7871 192.668 19.7871C193.062 19.7871 193.436 19.7461 193.787 19.6641C194.139 19.582 194.506 19.4512 194.889 19.2715V20.6543C194.576 20.8105 194.242 20.9258 193.887 21C193.531 21.0781 193.098 21.1172 192.586 21.1172Z" fill="white"/>
</svg>
